# xmcd
#
# Track frame offsets:
#  150
#  22741
#  45791
#  67180
#  84164
#  98647
#  132846
#  157431
#
# Disc length: 2543 seconds
#
# Revision: 0
# Processed by: cddbd v1.4PL0 Copyright (c) Steve Scherf et al.
# Submitted via: AltoMP3_Maker 3.0
#
DISCID=5909ed08
DTITLE=BB King - B.B. King - The Blues Collection
DYEAR=1900
DGENRE=
TTITLE0=the thrill is gone
TTITLE1=sweet little angel
TTITLE2=nobody loves me but my mother
TTITLE3=guess who
TTITLE4=king's shuffle
TTITLE5=outside help
TTITLE6=i've got a mind to give up living
TTITLE7=ain't nobody home
EXTD=
EXTT0=
EXTT1=
EXTT2=
EXTT3=
EXTT4=
EXTT5=
EXTT6=
EXTT7=
PLAYORDER=
